<svg width="1435" height="951" viewBox="0 0 1435 951" fill="none" xmlns="http://www.w3.org/2000/svg">
<rect width="1262.82" height="487.219" transform="matrix(0.942771 -0.33344 0.350762 0.936465 32.5601 483.217)" fill="#C4C4C4"/>
<g filter="url(#filter0_d_107_332)">
<path d="M270.008 703.33L313.938 820.617L244.888 845.038L120.203 512.154L250.939 465.916C276.104 457.015 299.913 453.773 322.366 456.189C344.972 458.55 364.584 466.372 381.202 479.654C397.762 492.784 410.068 510.095 418.117 531.586C430.335 564.204 428.705 593.951 413.227 620.829C397.846 647.5 370.284 667.864 330.542 681.92L270.008 703.33ZM249.198 647.773L310.883 625.956C329.144 619.498 341.432 610.319 347.748 598.418C354.219 586.464 354.485 572.561 348.547 556.709C342.439 540.4 332.667 528.926 319.232 522.285C305.797 515.644 290.506 515.184 273.359 520.903L210.063 543.29L249.198 647.773ZM597.584 657.898L744.201 606.042L764.839 661.142L549.171 737.419L424.486 404.536L493.537 380.114L597.584 657.898ZM972.77 509.926L851.701 552.746L854.375 629.475L780.951 655.443L781.018 278.437L845.005 255.806L1095.13 544.324L1021.71 570.293L972.77 509.926ZM849.535 490.595L933.317 460.963L844.525 351.257L849.535 490.595ZM1138.95 321.695L1152.51 147.048L1228.01 120.347L1197.45 371.427L1242.67 492.143L1172.47 516.972L1127.25 396.255L937.763 223L1013.49 196.217L1138.95 321.695Z" fill="#7290FD"/>
<path d="M270.008 703.33L266.5 693.965L257.072 697.3L260.58 706.664L270.008 703.33ZM313.938 820.617L317.446 829.981L326.874 826.647L323.366 817.282L313.938 820.617ZM244.888 845.038L235.46 848.373L238.968 857.737L248.395 854.403L244.888 845.038ZM120.203 512.154L116.695 502.79L107.268 506.124L110.775 515.489L120.203 512.154ZM322.366 456.189L321.417 466.071L321.432 466.072L321.448 466.074L322.366 456.189ZM381.202 479.654L374.943 487.348L374.959 487.361L374.975 487.373L381.202 479.654ZM413.227 620.829L421.984 625.843L421.987 625.837L413.227 620.829ZM249.198 647.773L239.771 651.107L243.278 660.472L252.706 657.138L249.198 647.773ZM347.748 598.418L338.863 593.634L338.845 593.669L338.826 593.704L347.748 598.418ZM273.359 520.903L270.022 511.48L269.937 511.508L269.852 511.538L273.359 520.903ZM210.063 543.29L206.555 533.925L197.128 537.259L200.635 546.624L210.063 543.29ZM260.58 706.664L304.511 823.951L323.366 817.282L279.435 699.995L260.58 706.664ZM310.431 811.252L241.38 835.674L248.395 854.403L317.446 829.981L310.431 811.252ZM254.316 841.704L129.631 508.82L110.775 515.489L235.46 848.373L254.316 841.704ZM123.711 521.519L254.446 475.28L247.431 456.551L116.695 502.79L123.711 521.519ZM254.446 475.28C278.458 466.788 300.736 463.846 321.417 466.071L323.315 446.307C299.09 443.7 273.75 447.243 247.431 456.551L254.446 475.28ZM321.448 466.074C342.245 468.246 359.967 475.378 374.943 487.348L387.46 471.96C369.201 457.366 347.698 448.853 323.283 446.303L321.448 466.074ZM374.975 487.373C389.95 499.246 401.221 514.979 408.69 534.92L427.545 528.251C418.915 505.21 405.575 486.322 387.429 471.935L374.975 487.373ZM408.69 534.92C420.005 565.129 418.312 591.778 404.467 615.821L421.987 625.837C439.097 596.124 440.665 563.278 427.545 528.251L408.69 534.92ZM404.47 615.816C390.615 639.842 365.348 659.005 327.034 672.555L334.05 691.285C375.221 676.723 405.078 655.159 421.984 625.843L404.47 615.816ZM327.034 672.555L266.5 693.965L273.515 712.695L334.05 691.285L327.034 672.555ZM252.706 657.138L314.391 635.321L307.376 616.591L245.691 638.408L252.706 657.138ZM314.391 635.321C334.002 628.385 348.797 617.967 356.671 603.133L338.826 593.704C334.067 602.67 324.285 610.611 307.376 616.591L314.391 635.321ZM356.634 603.202C364.757 588.192 364.661 571.225 357.975 553.375L339.12 560.044C344.309 573.897 343.68 584.736 338.863 593.634L356.634 603.202ZM357.975 553.375C351.131 535.103 339.788 521.394 323.63 513.407L314.834 531.163C325.546 536.457 333.746 545.698 339.12 560.044L357.975 553.375ZM323.63 513.407C307.272 505.322 289.117 505.111 270.022 511.48L276.697 530.326C291.896 525.256 304.322 525.967 314.834 531.163L323.63 513.407ZM269.852 511.538L206.555 533.925L213.571 552.654L276.867 530.267L269.852 511.538ZM200.635 546.624L239.771 651.107L258.626 644.439L219.491 539.955L200.635 546.624ZM597.584 657.898L588.156 661.232L591.663 670.597L601.091 667.263L597.584 657.898ZM744.201 606.042L753.629 602.708L750.121 593.343L740.693 596.678L744.201 606.042ZM764.839 661.142L768.347 670.507L777.774 667.172L774.267 657.807L764.839 661.142ZM549.171 737.419L539.743 740.754L543.251 750.119L552.679 746.784L549.171 737.419ZM424.486 404.536L420.979 395.171L411.551 398.505L415.058 407.87L424.486 404.536ZM493.537 380.114L502.964 376.779L499.457 367.415L490.029 370.749L493.537 380.114ZM601.091 667.263L747.709 615.407L740.693 596.678L594.076 648.533L601.091 667.263ZM734.773 609.377L755.411 664.476L774.267 657.807L753.629 602.708L734.773 609.377ZM761.332 651.777L545.663 728.055L552.679 746.784L768.347 670.507L761.332 651.777ZM558.599 734.085L433.914 401.201L415.058 407.87L539.743 740.754L558.599 734.085ZM427.994 413.9L497.044 389.478L490.029 370.749L420.979 395.171L427.994 413.9ZM484.109 383.448L588.156 661.232L607.011 654.564L502.964 376.779L484.109 383.448ZM972.77 509.926L980.586 503.778L976.036 498.166L969.262 500.561L972.77 509.926ZM851.701 552.746L848.194 543.381L841.398 545.784L841.648 552.947L851.701 552.746ZM854.375 629.475L857.882 638.84L864.678 636.436L864.428 629.273L854.375 629.475ZM780.951 655.443L770.892 655.301L770.889 669.607L784.459 664.808L780.951 655.443ZM781.018 278.437L777.51 269.073L770.96 271.389L770.959 278.295L781.018 278.437ZM845.005 255.806L852.604 249.401L848.035 244.13L841.497 246.442L845.005 255.806ZM1095.13 544.324L1098.64 553.689L1112.23 548.88L1102.73 537.918L1095.13 544.324ZM1021.71 570.293L1013.89 576.441L1018.44 582.053L1025.22 579.657L1021.71 570.293ZM849.535 490.595L839.483 490.808L839.978 504.58L853.043 499.959L849.535 490.595ZM933.317 460.963L936.825 470.328L949.935 465.691L941.138 454.821L933.317 460.963ZM844.525 351.257L852.346 345.116L833.402 321.71L834.472 351.47L844.525 351.257ZM969.262 500.561L848.194 543.381L855.209 562.11L976.278 519.291L969.262 500.561ZM841.648 552.947L844.322 629.677L864.428 629.273L861.754 552.544L841.648 552.947ZM850.867 620.11L777.443 646.079L784.459 664.808L857.882 638.84L850.867 620.11ZM791.01 655.586L791.077 278.579L770.959 278.295L770.892 655.301L791.01 655.586ZM784.525 287.802L848.512 265.171L841.497 246.442L777.51 269.073L784.525 287.802ZM837.405 262.212L1087.53 550.73L1102.73 537.918L852.604 249.401L837.405 262.212ZM1091.62 534.959L1018.2 560.928L1025.22 579.657L1098.64 553.689L1091.62 534.959ZM1029.52 564.145L980.586 503.778L964.954 516.074L1013.89 576.441L1029.52 564.145ZM853.043 499.959L936.825 470.328L929.809 451.598L846.028 481.23L853.043 499.959ZM941.138 454.821L852.346 345.116L836.704 357.399L925.496 467.105L941.138 454.821ZM834.472 351.47L839.483 490.808L859.588 490.382L854.578 351.045L834.472 351.47ZM1138.95 321.695L1131.84 328.631L1147.31 344.098L1148.98 322.594L1138.95 321.695ZM1152.51 147.048L1149 137.683L1142.97 139.816L1142.48 146.148L1152.51 147.048ZM1228.01 120.347L1237.99 121.67L1239.96 105.514L1224.5 110.982L1228.01 120.347ZM1197.45 371.427L1187.47 370.103L1187.18 372.491L1188.03 374.761L1197.45 371.427ZM1242.67 492.143L1246.18 501.507L1255.6 498.173L1252.1 488.808L1242.67 492.143ZM1172.47 516.972L1163.04 520.306L1166.55 529.671L1175.98 526.336L1172.47 516.972ZM1127.25 396.255L1136.68 392.921L1135.83 390.651L1134.03 389.003L1127.25 396.255ZM937.763 223L934.255 213.635L918.794 219.103L930.988 230.252L937.763 223ZM1013.49 196.217L1020.59 189.281L1016.03 184.714L1009.98 186.852L1013.49 196.217ZM1148.98 322.594L1162.54 147.947L1142.48 146.148L1128.92 320.795L1148.98 322.594ZM1156.02 156.412L1231.51 129.711L1224.5 110.982L1149 137.683L1156.02 156.412ZM1218.02 119.023L1187.47 370.103L1207.44 372.75L1237.99 121.67L1218.02 119.023ZM1188.03 374.761L1233.24 495.477L1252.1 488.808L1206.88 368.092L1188.03 374.761ZM1239.16 482.778L1168.96 507.607L1175.98 526.336L1246.18 501.507L1239.16 482.778ZM1181.9 513.637L1136.68 392.921L1117.83 399.59L1163.04 520.306L1181.9 513.637ZM1134.03 389.003L944.538 215.747L930.988 230.252L1120.48 403.508L1134.03 389.003ZM941.27 232.364L1017 205.582L1009.98 186.852L934.255 213.635L941.27 232.364ZM1006.38 203.153L1131.84 328.631L1146.05 314.759L1020.59 189.281L1006.38 203.153Z" fill="white"/>
</g>
<defs>
<filter id="filter0_d_107_332" x="100.203" y="120.347" width="1252.49" height="744.692" filterUnits="userSpaceOnUse" color-interpolation-filters="sRGB">
<feFlood flood-opacity="0" result="BackgroundImageFix"/>
<feColorMatrix in="SourceAlpha" type="matrix" values="0 0 0 0 0 0 0 0 0 0 0 0 0 0 0 0 0 0 127 0" result="hardAlpha"/>
<feOffset dx="-20" dy="20"/>
<feComposite in2="hardAlpha" operator="out"/>
<feColorMatrix type="matrix" values="0 0 0 0 0 0 0 0 0 0 0 0 0 0 0 0 0 0 1 0"/>
<feBlend mode="normal" in2="BackgroundImageFix" result="effect1_dropShadow_107_332"/>
<feBlend mode="normal" in="SourceGraphic" in2="effect1_dropShadow_107_332" result="shape"/>
</filter>
</defs>
</svg>
