<svg width="2582" height="1796" viewBox="0 0 2582 1796" fill="none" xmlns="http://www.w3.org/2000/svg">
<path d="M2156 1144L2092 1442L2383 1387.5L2156 1144Z" fill="#5B73CA" stroke="#5B73CA"/>
<path d="M1989 494L2184 810L2257.5 546.5L1989 494Z" fill="#4E63B5" stroke="#4E63B5"/>
<path d="M1989 494L1829 735.5L2184 810L1989 494Z" fill="#475DAD" stroke="#475DAD"/>
<path d="M1829 735.5L1971 991.5L2184 810L1829 735.5Z" fill="#556CC2" stroke="#556CC2"/>
<path d="M1702 512L1829 735.5L1989 494L1702 512Z" fill="#475DAD" stroke="#475DAD"/>
<path d="M1571.5 785.5L1702 512L1698.24 512.942L1298.5 613L1435 699.25L1571.5 785.5Z" fill="#405397" stroke="#405397"/>
<path d="M1227 907.5L1298.5 613C1179.88 622.438 946.2 643.378 938.181 653.298L938 654C941.2 663.6 1132 827 1227 907.5Z" fill="#405397" stroke="#405397"/>
<path d="M1298.5 613L1028 304L938.181 653.298C946.2 643.378 1179.88 622.438 1298.5 613Z" fill="#556CC2" stroke="#556CC2"/>
<path d="M723.5 402C723.34 402.021 723.228 402.092 723.162 402.211C723.018 402.473 723.095 402.966 723.379 403.677C730.47 421.429 866.828 575.113 938 654C937.924 653.773 937.986 653.539 938.181 653.298L1028 304C930.333 336.167 732.7 400.8 723.5 402Z" fill="#5B73CA" stroke="#5B73CA"/>
<path d="M1028 304L1298.5 613L1508 286L1028 304Z" fill="#4E63B5" stroke="#4E63B5"/>
<path d="M1028 304L1508 286L1265.5 141.5L1028 304Z" fill="#5B73CA" stroke="#5B73CA"/>
<path d="M1095.5 34L1028 304L1265.5 141.5L1095.5 34Z" fill="#5B73CA" stroke="#5B73CA"/>
<path d="M1486.56 2.86632L1507.43 285.079L1266.46 141.488L1486.56 2.86632Z" fill="#556CC2" stroke="#556CC2"/>
<path d="M1298.5 613L1698.24 512.942L1508 286L1298.5 613Z" fill="#556CC2" stroke="#556CC2"/>
<path d="M1698.24 512.942L1720 182L1508 286L1698.24 512.942Z" fill="#5B73CA" stroke="#5B73CA"/>
<path d="M1508 286L1720 182L1487 2L1508 286Z" fill="#5B73CA" stroke="#5B73CA"/>
<path d="M1702 512L1989 494L1720 182L1698.24 512.942L1702 512Z" fill="#4E63B5" stroke="#4E63B5"/>
<path d="M1720 182L1989 494V264.5L1720 182Z" fill="#556CC2" stroke="#556CC2"/>
<path d="M1989 50L1720 182L1989 264.5V50Z" fill="#5B73CA" stroke="#5B73CA"/>
<path d="M1702 512L1571.5 785.5L1829 735.5L1702 512Z" fill="#465AA3" stroke="#465AA3"/>
<path d="M1298.5 613L1227 907.5L1399.25 846.5L1571.5 785.5L1435 699.25L1298.5 613Z" fill="#374886" stroke="#374886"/>
<path d="M1002 1209L1227 907.5L750 972L1002 1209Z" fill="#4458A1" stroke="#4458A1"/>
<path d="M1002 1209L750 972L683.5 1278.5L1002 1209Z" fill="#4E63B5" stroke="#4E63B5"/>
<path d="M1765 1416L1829 1736.5L2092 1442C1983.6 1436.35 1766.44 1423.23 1765 1416Z" fill="#556CC2" stroke="#556CC2"/>
<path d="M1765 1416C1766.44 1423.23 1983.6 1436.35 2092 1442L2156 1144L1765 1416Z" fill="#4E63B5" stroke="#4E63B5"/>
<path d="M1971 991.5L1765 1416L2156 1144L1971 991.5Z" fill="#475DAD" stroke="#475DAD"/>
<path d="M1635 1092.5L1765 1416L1971 991.5L1635 1092.5Z" fill="#4458A2" stroke="#4458A1"/>
<path d="M1571.5 785.5L1635 1092.5L1971 991.5L1571.5 785.5Z" fill="#374886" stroke="#374886"/>
<path d="M1571.5 785.5L1971 991.5L1829 735.5L1571.5 785.5Z" fill="#4458A1" stroke="#4458A1"/>
<path d="M1635 1092.5L1571.5 785.5L1399.25 846.5L1227 907.5L1431 1000L1635 1092.5Z" fill="#303F74" stroke="#303F74"/>
<path d="M1405.5 1209L1635 1092.5L1431 1000L1227 907.5L1316.25 1058.25L1405.5 1209Z" fill="#374886" stroke="#374886"/>
<path d="M1227 907.5L1002 1209H1405.5L1316.25 1058.25L1227 907.5Z" fill="#405397" stroke="#405397"/>
<path d="M1405.5 1209H1002L1138 1524L1405.5 1209Z" fill="#556CC2" stroke="#556CC2"/>
<path d="M1405.5 1581V1209L1138 1524L1405.5 1581Z" fill="#4E63B5" stroke="#4E63B5"/>
<path d="M1405.5 1581L1138 1524L1170.5 1794.5L1405.5 1581Z" fill="#5B73CA" stroke="#5B73CA"/>
<path d="M1765 1416L1405.5 1581L1829 1736.5L1765 1416Z" fill="#5B73CA" stroke="#5B73CA"/>
<path d="M1765 1416L1405.5 1209V1581L1765 1416Z" fill="#556CC2" stroke="#556CC2"/>
<path d="M1765 1416L1635 1092.5L1405.5 1209L1765 1416Z" fill="#405397" stroke="#405397"/>
<path d="M451 1144L750 972L483 828.5L451 1144Z" fill="#475DAD" stroke="#475DAD"/>
<path d="M483 1428.5L451 1144L191.32 1276.3L483 1428.5Z" fill="#556CC2" stroke="#556CC2"/>
<path d="M683.5 1278.5L451 1144L483 1428.5L683.5 1278.5Z" fill="#5B73CA" stroke="#5B73CA"/>
<path d="M683.5 1278.5L750 972L451 1144L683.5 1278.5Z" fill="#5268BB" stroke="#556CC2"/>
<path d="M451 1144L221.5 1000L187 1278.5L191.32 1276.3L451 1144Z" fill="#5B73CA" stroke="#5B73CA"/>
<path d="M451 1144L483 828.5L221.5 1000L451 1144Z" fill="#556CC2" stroke="#556CC2"/>
<path d="M221.5 1000L323 697.5L2 861.5L221.5 1000Z" fill="#5B73CA" stroke="#5B73CA"/>
<path d="M221.5 1000L483 828.5L323 697.5L221.5 1000Z" fill="#4E63B5" stroke="#4E63B5"/>
<path d="M323 697.5L142.5 679L2 861.5L323 697.5Z" fill="#5B73CA" stroke="#5B73CA"/>
<path d="M323 697.5L256.5 433.5L142.5 679L323 697.5Z" fill="#556CC2" stroke="#556CC2"/>
<path d="M323 697.5L483 552.5L256.5 433.5L323 697.5Z" fill="#5B73CA" stroke="#5B73CA"/>
<path d="M256.5 433.5L483 552.5L531.5 376.5L256.5 433.5Z" fill="#5B73CA" stroke="#5B73CA"/>
<path d="M483 828.5V552.5L323 697.5L483 828.5Z" fill="#556CC2" stroke="#556CC2"/>
<path d="M483 828.5L701.5 707L483 552.5V828.5Z" fill="#4E63B5" stroke="#4E63B5"/>
<path d="M723.379 403.677C723.095 402.966 723.018 402.473 723.162 402.211L483 552.5L701.5 707L723.379 403.677Z" fill="#5B73CA" stroke="#5B73CA"/>
<path d="M531.5 376.5L483 552.5L723.162 402.211C723.228 402.092 723.34 402.021 723.5 402L531.5 376.5Z" fill="#556CC2" stroke="#556CC2"/>
<path d="M701.5 707L938 654C866.828 575.113 730.47 421.429 723.379 403.677L701.5 707Z" fill="#556CC2" stroke="#556CC2"/>
<path d="M750 972L701.5 707L483 828.5L750 972Z" fill="#475DAD" stroke="#475DAD"/>
<path d="M1227 907.5C1132 827 941.2 663.6 938 654L750 972L1227 907.5Z" fill="#465AA3" stroke="#465AA3"/>
<path d="M750 972L938 654L701.5 707L750 972Z" fill="#475DAD" stroke="#475DAD"/>
<path d="M1002 1209L683.5 1278.5L830 1472.5L1002 1209Z" fill="#556CC2" stroke="#556CC2"/>
<path d="M1138 1524L1002 1209L830 1472.5L1138 1524Z" fill="#5B73CA" stroke="#5B73CA"/>
<path d="M2156 1144L2383 1387.5L2401.5 1184L2156 1144Z" fill="#5B73CA" stroke="#5B73CA"/>
<path d="M2337.78 1006.95L2156 1144L2401.5 1184L2337.78 1006.95Z" fill="#556CC2" stroke="#556CC2"/>
<path d="M2184 810L1971 991.5L2156 1144L2184 810Z" fill="#556CC2" stroke="#556CC2"/>
<path d="M2184 810L2156 1144L2337.78 1006.95L2347 1000L2184 810Z" fill="#5B73CA" stroke="#5B73CA"/>
<path d="M2383 735.5L2347 1000L2581 846.5L2383 735.5Z" fill="#556CC2" stroke="#556CC2"/>
<path d="M2184 810L2347 1000L2383 735.5L2184 810Z" fill="#5B73CA" stroke="#5B73CA"/>
<path d="M2492.5 613L2383 735.5L2581 846.5L2492.5 613Z" fill="#5B73CA" stroke="#5B73CA"/>
<path d="M2257.5 546.5L2184 810L2383 735.5L2257.5 546.5Z" fill="#556CC2" stroke="#556CC2"/>
<path d="M2257.5 546.5L2383 735.5L2492.5 613L2257.5 546.5Z" fill="#5B73CA" stroke="#5B73CA"/>
<path d="M2401.5 402L2257.5 546.5L2492.5 613L2401.5 402Z" fill="#5B73CA" stroke="#5B73CA"/>
<path d="M2170.5 402L2257.5 546.5L2401.5 402H2170.5Z" fill="#5B73CA" stroke="#5B73CA"/>
<path d="M1989 494L2257.5 546.5L2170.5 402L1989 494Z" fill="#556CC2" stroke="#556CC2"/>
<path d="M1989 264.5V494L2170.5 402L1989 264.5Z" fill="#5B73CA" stroke="#5B73CA"/>
</svg>
